# Blender 3.4.1
# www.blender.org
mtllib smeltery.mtl
o cube.001
v 0.187500 0.625000 0.187500
v 0.187500 0.625000 0.812500
v 0.187500 0.375000 0.187500
v 0.187500 0.375000 0.812500
v 0.812500 0.625000 0.812500
v 0.812500 0.625000 0.187500
v 0.812500 0.375000 0.812500
v 0.812500 0.375000 0.187500
vn -0.0000 -0.0000 1.0000
vn -1.0000 -0.0000 -0.0000
vn -0.0000 -0.0000 -1.0000
vn 1.0000 -0.0000 -0.0000
vn -0.0000 1.0000 -0.0000
vn -0.0000 -1.0000 -0.0000
vt 0.171875 0.570312
vt 0.335938 0.570312
vt 0.390625 0.609375
vt 0.085938 0.570312
vt 0.250000 0.570312
vt 0.390625 0.531250
vt 0.171875 0.539062
vt 0.335938 0.539062
vt 0.000000 0.601562
vt 0.085938 0.539062
vt 0.250000 0.539062
vt 0.000000 0.523438
vt 0.164062 0.570312
vt 0.085938 0.531250
vt 0.468750 0.531250
vt 0.257812 0.570312
vt 0.164062 0.531250
vt 0.468750 0.609375
vt 0.164062 0.539062
vt 0.085938 0.500000
vt 0.078125 0.523438
vt 0.257812 0.539062
vt 0.164062 0.500000
vt 0.078125 0.601562
s 0
usemtl Material
f 4/10/1 7/19/1 5/13/1 2/4/1
f 3/7/2 4/11/2 2/5/2 1/1/2
f 8/22/3 3/8/3 1/2/3 6/16/3
f 7/20/4 8/23/4 6/17/4 5/14/4
f 6/18/5 1/3/5 2/6/5 5/15/5
f 7/21/6 4/12/6 3/9/6 8/24/6
o cube.002
v 0.062500 0.812500 0.062500
v 0.062500 0.812500 0.937500
v 0.062500 0.625000 0.062500
v 0.062500 0.625000 0.937500
v 0.937500 0.812500 0.937500
v 0.937500 0.812500 0.062500
v 0.937500 0.625000 0.937500
v 0.937500 0.625000 0.062500
vn -0.0000 -0.0000 1.0000
vn -1.0000 -0.0000 -0.0000
vn -0.0000 -0.0000 -1.0000
vn 1.0000 -0.0000 -0.0000
vn -0.0000 1.0000 -0.0000
vn -0.0000 -1.0000 -0.0000
vt 0.398438 0.968750
vt 0.507812 0.937500
vt 0.265625 0.867188
vt 0.398438 1.000000
vt 0.507812 0.968750
vt 0.265625 0.757812
vt 0.398438 0.945312
vt 0.507812 0.914062
vt 0.265625 0.750000
vt 0.398438 0.976562
vt 0.507812 0.945312
vt 0.265625 0.640625
vt 0.507812 1.000000
vt 0.085938 0.601562
vt 0.375000 0.757812
vt 0.398438 0.937500
vt 0.195312 0.601562
vt 0.375000 0.867188
vt 0.507812 0.976562
vt 0.085938 0.578125
vt 0.375000 0.640625
vt 0.398438 0.914062
vt 0.195312 0.578125
vt 0.375000 0.750000
s 0
usemtl Material
f 12/34/7 15/43/7 13/37/7 10/28/7
f 11/31/8 12/35/8 10/29/8 9/25/8
f 16/46/9 11/32/9 9/26/9 14/40/9
f 15/44/10 16/47/10 14/41/10 13/38/10
f 14/42/11 9/27/11 10/30/11 13/39/11
f 15/45/12 12/36/12 11/33/12 16/48/12
o cuboid
v 0.187500 0.375000 0.187500
v 0.187500 0.375000 0.812500
v -0.000000 -0.000000 -0.000000
v 0.000000 0.000000 1.000000
v 0.812500 0.375000 0.187500
v 0.812500 0.375000 0.812500
v 1.000000 -0.000000 -0.000000
v 1.000000 0.000000 1.000000
vn -0.8944 0.4472 -0.0000
vn 0.8944 0.4472 -0.0000
vn -0.0000 1.0000 -0.0000
vn -0.0000 -1.0000 -0.0000
vn -0.0000 0.4472 -0.8944
vn -0.0000 0.4472 0.8944
vt 0.406250 0.820312
vt 0.460938 0.617188
vt 0.359375 0.632812
vt 0.484375 0.820312
vt 0.460938 0.695312
vt 0.406250 0.882812
vt 0.382812 0.765625
vt 0.257812 0.734375
vt 0.382812 0.578125
vt 0.507812 0.765625
vt 0.257812 0.609375
vt 0.382812 0.828125
vt 0.484375 0.757812
vt 0.382812 0.617188
vt 0.281250 0.632812
vt 0.406250 0.757812
vt 0.382812 0.695312
vt 0.484375 0.882812
vt 0.507812 0.703125
vt 0.132812 0.734375
vt 0.257812 0.578125
vt 0.382812 0.703125
vt 0.132812 0.609375
vt 0.507812 0.828125
s 0
usemtl Material
f 18/52/13 17/49/13 19/55/13 20/58/13
f 23/67/14 21/61/14 22/64/14 24/70/14
f 21/62/15 17/50/15 18/53/15 22/65/15
f 20/59/16 19/56/16 23/68/16 24/71/16
f 19/57/17 17/51/17 21/63/17 23/69/17
f 22/66/18 18/54/18 20/60/18 24/72/18
